<?xml version="1.0" encoding="utf-8"?>
<!-- Generator: Adobe Illustrator 23.0.0, SVG Export Plug-In . SVG Version: 6.00 Build 0)  -->
<svg version="1.1" id="Capa_1" xmlns="http://www.w3.org/2000/svg" xmlns:xlink="http://www.w3.org/1999/xlink" x="0px" y="0px"
	 viewBox="0 0 331.03 331.13" style="enable-background:new 0 0 331.03 331.13;" xml:space="preserve">
<style type="text/css">
	.st0{opacity:0.49;fill:url(#SVGID_1_);}
	.st1{opacity:0.49;fill:url(#SVGID_2_);}
	.st2{fill:#E0EDF8;}
	.st3{fill:#717B88;}
	.st4{fill:none;stroke:#717B88;stroke-miterlimit:10;}
	.st5{fill:#A9ECDE;}
	.st6{fill:#FFFFFF;}
	.st7{fill:none;stroke:#717B88;stroke-width:2;stroke-miterlimit:10;}
	.st8{fill:#FFFFFF;stroke:#717B88;stroke-width:2;stroke-miterlimit:10;}
	.st9{fill:none;stroke:#717B88;stroke-width:3;stroke-miterlimit:10;}
</style>
<radialGradient id="SVGID_1_" cx="209.0753" cy="218.5779" r="4.7655" gradientTransform="matrix(1 0 0 0.2 0 174.8624)" gradientUnits="userSpaceOnUse">
	<stop  offset="0" style="stop-color:#DADBDF;stop-opacity:0.6"/>
	<stop  offset="0.4916" style="stop-color:#F2F2F2;stop-opacity:0.4"/>
	<stop  offset="0.784" style="stop-color:#EEEEEE;stop-opacity:0.4575"/>
	<stop  offset="1" style="stop-color:#E6E6E6;stop-opacity:0.5"/>
</radialGradient>
<path class="st0" d="M210.03,219.95c-2.69,0-5.37-0.91-7.55-2.75c4.57,0.4,8.98,0.82,13.19,1.31
	C213.93,219.48,211.98,219.95,210.03,219.95z"/>
<radialGradient id="SVGID_2_" cx="169.9447" cy="230.1865" r="68.5375" gradientTransform="matrix(1 0 0 0.2 0 184.1492)" gradientUnits="userSpaceOnUse">
	<stop  offset="0" style="stop-color:#DADBDF;stop-opacity:0.6"/>
	<stop  offset="0.4916" style="stop-color:#F2F2F2;stop-opacity:0.4"/>
	<stop  offset="0.784" style="stop-color:#EEEEEE;stop-opacity:0.4575"/>
	<stop  offset="1" style="stop-color:#E6E6E6;stop-opacity:0.5"/>
</radialGradient>
<path class="st1" d="M265.7,232.98c-0.24,8.16-43.29,13.51-96.17,11.97c-52.9-1.54-95.57-9.4-95.33-17.56
	c0.24-8.14,43.31-13.51,96.19-11.97c1.76,0.05,3.53,0.12,5.27,0.18v5.86h60.82v-0.02C254.6,224.67,265.82,228.78,265.7,232.98z"/>
<g>
	<g>
		<line class="st2" x1="205.8" y1="63.59" x2="205.8" y2="90.06"/>
		<path class="st3" d="M205.79,90.06L205.79,90.06c-0.66,0-1.2-0.54-1.2-1.2V64.79c0-0.66,0.54-1.2,1.2-1.2h0
			c0.66,0,1.2,0.54,1.2,1.2v24.07C206.99,89.52,206.46,90.06,205.79,90.06z"/>
	</g>
	<g>
		<line class="st2" x1="194.83" y1="73.67" x2="222.55" y2="73.67"/>
		<path class="st3" d="M221.29,75.26h-25.19c-0.7,0-1.27-0.57-1.27-1.27l0,0c0-0.7,0.57-1.27,1.27-1.27h25.19
			c0.7,0,1.27,0.57,1.27,1.27l0,0C222.55,74.69,221.99,75.26,221.29,75.26z"/>
	</g>
</g>
<g>
	<g>
		<line class="st2" x1="226.83" y1="95.93" x2="226.83" y2="112.4"/>
		<path class="st3" d="M226.83,112.4L226.83,112.4c-0.41,0-0.74-0.33-0.74-0.74V96.68c0-0.41,0.33-0.74,0.74-0.74l0,0
			c0.41,0,0.74,0.33,0.74,0.74v14.98C227.58,112.07,227.24,112.4,226.83,112.4z"/>
	</g>
	<g>
		<line class="st2" x1="220.01" y1="102.21" x2="237.26" y2="102.21"/>
		<path class="st3" d="M236.47,103.2H220.8c-0.44,0-0.79-0.35-0.79-0.79l0,0c0-0.44,0.35-0.79,0.79-0.79h15.68
			c0.44,0,0.79,0.35,0.79,0.79l0,0C237.26,102.84,236.91,103.2,236.47,103.2z"/>
	</g>
</g>
<g>
	<g>
		<line class="st2" x1="117.89" y1="207.85" x2="117.89" y2="217.74"/>
		<path class="st3" d="M117.88,217.74L117.88,217.74c-0.25,0-0.45-0.2-0.45-0.45v-9c0-0.25,0.2-0.45,0.45-0.45l0,0
			c0.25,0,0.45,0.2,0.45,0.45v9C118.33,217.54,118.13,217.74,117.88,217.74z"/>
	</g>
	<g>
		<line class="st2" x1="113.79" y1="211.62" x2="124.15" y2="211.62"/>
		<path class="st3" d="M123.67,212.21h-9.41c-0.26,0-0.47-0.21-0.47-0.47l0,0c0-0.26,0.21-0.47,0.47-0.47h9.41
			c0.26,0,0.47,0.21,0.47,0.47l0,0C124.15,212,123.94,212.21,123.67,212.21z"/>
	</g>
</g>
<g>
	<circle class="st4" cx="66.62" cy="164.75" r="7.14"/>
</g>
<g>
	<circle class="st4" cx="118.24" cy="212.8" r="13.52"/>
</g>
<path class="st5" d="M218.34,216.51c-0.81,0.81-1.71,1.48-2.67,2c-1.75,0.97-3.69,1.44-5.64,1.44c-2.69,0-5.37-0.91-7.55-2.75
	c-0.27-0.2-0.52-0.44-0.77-0.69l-19.05-19.05c-3.53-3.54-4.35-8.76-2.42-13.08c0.55-1.29,1.36-2.5,2.42-3.56
	c0.91-0.91,1.93-1.63,3.02-2.18c1.66-0.84,3.47-1.26,5.3-1.26c3.02,0,6.03,1.14,8.33,3.44l19.04,19.04
	C222.94,204.46,222.94,211.91,218.34,216.51z"/>
<g>
	<path class="st6" d="M114.39,75.67l-4.07,2.64h-0.01c-2.99,2.23-5.69,4.5-8.11,6.8c-3.83,3.62-7,7.28-9.57,10.93
		c-0.01,0-0.01,0,0,0.01c-18.39,26.01-7.55,50.91-7.55,50.91c7.72,23.96,29.09,36.53,44.64,42.69c0.04,0.01,0.06,0.02,0.1,0.04
		c1.95,0.76,3.8,1.43,5.52,2.01l-20.64-2.79l-0.15-0.02c-0.01,0-0.01-0.01-0.01-0.01c-0.05-0.02-0.11-0.05-0.15-0.07
		c-21.42-9.59-39.65-29.78-40.92-57.99c0-0.06-0.01-0.12-0.01-0.18c-0.01-0.02,0-0.05,0-0.06c0-0.08,0-0.18-0.01-0.26
		c-0.56-15.52,5.99-27.75,14.46-36.99c0-0.01,0.01-0.02,0.02-0.04c3.75-4.09,7.89-7.61,11.95-10.55L114.39,75.67z"/>
	<g>
		<path class="st2" d="M199.57,131.03c0,17.66-7.69,33.51-19.91,44.4c-1.29,1.16-2.64,2.27-4.01,3.31
			c-8.33,6.21-18.33,10.29-29.21,11.47c26.34-6.13,45.98-29.75,45.98-57.97c0-32.87-26.64-59.51-59.51-59.51
			c-2.15,0-4.28,0.12-6.38,0.34c4.35-1.01,8.86-1.54,13.51-1.54C172.92,71.52,199.57,98.16,199.57,131.03z"/>
		<path class="st2" d="M192.42,132.24c0,28.22-19.64,51.84-45.98,57.97c-0.03,0-0.07,0.02-0.08,0.02c-2.08,0.2-4.18,0.32-6.31,0.32
			c-3.53,0-6.97-0.3-10.32-0.89c-27.95-4.89-49.19-29.28-49.19-58.62c0-18.48,8.43-35,21.66-45.93c0.05-0.03,0.08-0.07,0.13-0.1
			c6.93-5.69,15.18-9.84,24.21-11.94c2.1-0.22,4.23-0.34,6.38-0.34C165.78,72.73,192.42,99.37,192.42,132.24z"/>
		<path class="st7" d="M192.42,132.24c0,28.22-19.64,51.84-45.98,57.97c-0.03,0-0.07,0.02-0.08,0.02
			c-3.58,0.82-7.25,1.33-11.03,1.48h-0.02c-0.79,0.03-1.59,0.05-2.4,0.05c-6.36,0-12.47-0.99-18.21-2.84
			c-0.12-0.03-0.22-0.07-0.32-0.1c-0.02-0.02-0.02-0.02-0.03-0.02c-23.77-7.81-40.94-30.17-40.94-56.56c0-0.64,0.02-1.29,0.03-1.93
			c0.44-14.02,5.74-26.81,14.25-36.76c0.07-0.08,0.13-0.15,0.2-0.22c3.49-4.05,7.52-7.6,11.99-10.59c4.45-2.97,9.33-5.37,14.52-7.07
			c3.88-1.28,7.94-2.15,12.14-2.6c2.1-0.22,4.23-0.34,6.38-0.34C165.78,72.73,192.42,99.37,192.42,132.24z"/>
		<circle class="st8" cx="132.92" cy="131.03" r="49.77"/>
		<path class="st7" d="M218.34,216.51c-0.81,0.81-1.71,1.48-2.67,2c-1.75,0.97-3.69,1.44-5.64,1.44c-2.69,0-5.37-0.91-7.55-2.75
			c-0.27-0.2-0.52-0.44-0.77-0.69l-19.05-19.05c-3.53-3.54-4.35-8.76-2.42-13.08c0.55-1.29,1.36-2.5,2.42-3.56
			c0.91-0.91,1.93-1.63,3.02-2.18c1.66-0.84,3.47-1.26,5.3-1.26c3.02,0,6.03,1.14,8.33,3.44l19.04,19.04
			C222.94,204.46,222.94,211.91,218.34,216.51z"/>
		<line class="st9" x1="180.24" y1="184.38" x2="175.65" y2="178.94"/>
		<polyline class="st9" points="181.53,173.96 182.84,175.44 185.67,178.64 		"/>
		<g>
			<path class="st3" d="M118.97,150.87c1.04-2.61,3.05-4.86,5.53-6.42c2.48-1.56,5.46-2.4,8.42-2.4c2.97-0.01,5.94,0.83,8.43,2.4
				c2.47,1.56,4.49,3.81,5.52,6.42c-2.07-1.88-4.26-3.36-6.62-4.34c-2.35-0.99-4.83-1.48-7.33-1.48c-2.49,0-4.98,0.49-7.33,1.48
				C123.22,147.51,121.03,148.99,118.97,150.87z"/>
		</g>
		<line class="st7" x1="105.04" y1="112.4" x2="117.26" y2="125.23"/>
		<line class="st7" x1="105.04" y1="125.23" x2="117.26" y2="112.4"/>
		<line class="st7" x1="147.36" y1="112.4" x2="159.58" y2="125.23"/>
		<line class="st7" x1="147.36" y1="125.23" x2="159.58" y2="112.4"/>
	</g>
</g>
</svg>
